<svg width="69" height="100" viewBox="0 0 69 100" fill="none" xmlns="http://www.w3.org/2000/svg">
<path d="M46.7129 10.3617V29.1818L67.8618 83.5005C67.8618 83.5005 74.3183 96.7665 55.8519 99.9991H13.7244C13.7244 99.9991 -3.48742 98.203 0.638863 84.5746L22.8641 29.1826V10.3617H46.7129Z" fill="#009688"/>
<path d="M47.1593 8.17343H21.7892C19.7344 8.17343 18.063 6.34549 18.063 4.08701C18.063 1.82709 19.7337 -0.000854492 21.7892 -0.000854492H47.1593C49.2236 -0.000854492 50.892 1.82709 50.892 4.08701C50.892 6.34549 49.2228 8.17343 47.1593 8.17343Z" fill="#004D40"/>
<path d="M40.4667 41.0909C43.189 41.0909 45.4091 43.751 45.4091 47.0452C45.4091 50.3249 43.1876 52.9914 40.4667 52.9914C37.7378 52.9914 35.5243 50.3249 35.5243 47.0452C35.5243 43.7495 37.7378 41.0909 40.4667 41.0909Z" fill="white"/>
<path d="M25.2942 56.537C27.5951 56.537 29.4603 54.2888 29.4603 51.5156C29.4603 48.7423 27.5951 46.4941 25.2942 46.4941C22.9933 46.4941 21.1281 48.7423 21.1281 51.5156C21.1281 54.2888 22.9933 56.537 25.2942 56.537Z" fill="white"/>
<path d="M48.5939 27.9345V18.9832C48.5939 18.9832 59.945 16.4805 65.618 29.6834C65.618 29.6834 56.7769 36.1247 48.5939 27.9345Z" fill="#004D40"/>
<path d="M20.7919 27.9345V18.9832C20.7919 18.9832 9.43939 16.4805 3.76929 29.6834C3.76929 29.6834 12.6017 36.1247 20.7919 27.9345Z" fill="#004D40"/>
<path d="M55.4185 64.9774C36.96 59.2515 21.4413 62.3254 13.8563 64.6491L6.20749 83.0597C2.76397 94.0506 17.1425 95.4951 17.1425 95.4951H52.3279C67.7509 92.8895 62.3606 82.1972 62.3606 82.1972L55.4185 64.9774Z" fill="white"/>
<path d="M28.8167 71.818C28.8167 73.8032 26.1488 75.418 22.8625 75.418C19.5763 75.418 16.9163 73.8025 16.9163 71.818C16.9163 69.8248 19.5763 68.2157 22.8625 68.2157C26.1502 68.2171 28.8167 69.8248 28.8167 71.818Z" fill="#004D40"/>
<path d="M49.9913 71.818C49.9913 73.8032 47.3233 75.418 44.045 75.418C40.7494 75.418 38.0908 73.8025 38.0908 71.818C38.0908 69.8248 40.7494 68.2157 44.045 68.2157C47.3248 68.2171 49.9913 69.8248 49.9913 71.818Z" fill="#004D40"/>
</svg>
