<svg width="100" height="75" viewBox="0 0 100 75" fill="none" xmlns="http://www.w3.org/2000/svg">
<path d="M86.1077 43.1111C82.619 43.1294 79.587 43.9696 77.0481 45.2117C76.1165 43.3669 75.185 41.723 75.0206 40.5174C74.838 39.111 74.6188 38.2525 74.838 36.5721C75.0571 34.8917 76.0435 32.4989 76.0252 32.3163C76.0069 32.1336 75.806 31.2752 73.7968 31.2569C71.7876 31.2386 70.0524 31.6405 69.8515 32.1702C69.6506 32.6999 69.267 33.9054 69.0113 35.1474C68.6643 36.974 64.9929 43.4947 62.8924 46.9103C62.2166 45.577 61.6321 44.408 61.5042 43.4764C61.3216 42.07 61.1024 41.2115 61.3216 39.5311C61.5408 37.8507 62.5271 35.4579 62.5088 35.2753C62.4906 35.0926 62.2896 34.2342 60.2804 34.2159C58.2713 34.1976 56.536 34.5995 56.3351 35.1292C56.1342 35.6589 55.915 36.9009 55.4949 38.1064C55.0748 39.3119 50.1979 50.1981 48.9194 53.011C48.2618 54.4539 47.6956 55.6047 47.2938 56.3901C47.2938 56.3901 47.2755 56.4449 47.2207 56.5362C46.8736 57.212 46.6727 57.5773 46.6727 57.5773C46.6727 57.5773 46.6727 57.5773 46.6727 57.5956C46.3988 58.0887 46.1065 58.5454 45.9604 58.5454C45.8508 58.5454 45.6499 57.2303 45.9969 55.4403C46.7275 51.6593 48.4627 45.7779 48.4445 45.577C48.4445 45.4674 48.7733 44.4445 47.312 43.9148C45.8873 43.3851 45.3759 44.2619 45.248 44.2619C45.1202 44.2619 45.0288 44.5724 45.0288 44.5724C45.0288 44.5724 46.6179 37.9603 41.9968 37.9603C39.1109 37.9603 35.129 41.1202 33.1563 43.9696C31.9143 44.6454 29.2658 46.0884 26.4347 47.6409C25.357 48.2437 24.2428 48.8465 23.2017 49.4127C23.1286 49.3396 23.0556 49.2483 22.9825 49.1752C17.3933 43.2025 7.05511 38.9832 7.49348 30.9647C7.65786 28.0422 8.66246 20.3707 27.3479 11.0554C42.7274 3.47524 54.9652 5.57576 57.084 10.2334C60.1161 16.882 50.5267 29.2294 34.6358 31.0194C28.5717 31.6953 25.3936 29.3573 24.5899 28.4806C23.7497 27.5673 23.6218 27.5125 23.3113 27.6951C22.7999 27.9691 23.1286 28.7911 23.3113 29.266C23.7862 30.508 25.7406 32.6999 29.0466 33.7775C31.9691 34.7273 39.0743 35.257 47.6773 31.9327C57.3032 28.2066 64.8285 17.8501 62.6184 9.17404C60.4083 0.370125 45.796 -2.53407 31.9691 2.37932C23.7497 5.30178 14.8362 9.90466 8.42501 15.8957C0.808343 23.0192 -0.397172 29.2112 0.0959939 31.8049C1.86774 41.0106 14.5622 47.0017 19.64 51.4401C19.3842 51.5863 19.1468 51.7141 18.9459 51.8237C16.407 53.084 6.72633 58.1435 4.3153 63.4953C1.57549 69.5594 4.75367 73.9066 6.85419 74.4911C13.3749 76.2993 20.0783 73.0481 23.6766 67.6781C27.2749 62.3081 26.8365 55.3307 25.1744 52.1342C25.1561 52.0977 25.1378 52.0612 25.1013 52.0246C25.7589 51.6411 26.4347 51.2392 27.0922 50.8557C28.3891 50.0885 29.6677 49.3762 30.7636 48.7917C30.1426 50.4903 29.6859 52.5178 29.4667 55.4403C29.1928 58.8742 30.5992 63.3309 32.444 65.0844C33.2659 65.8515 34.234 65.8698 34.855 65.8698C37.0103 65.8698 37.9784 64.0798 39.0561 61.961C40.3712 59.3673 41.5584 56.3535 41.5584 56.3535C41.5584 56.3535 40.0789 64.4999 44.0973 64.4999C45.5585 64.4999 47.038 62.6003 47.6956 61.6322C47.6956 61.6505 47.6956 61.6505 47.6956 61.6505C47.6956 61.6505 47.7321 61.5957 47.8052 61.4678C47.9513 61.2304 48.0426 61.0843 48.0426 61.0843C48.0426 61.0843 48.0426 61.066 48.0426 61.0477C48.6271 60.0249 49.9422 57.7052 51.8966 53.8512C54.4173 48.883 56.8466 42.6728 56.8466 42.6728C56.8466 42.6728 57.0657 44.1888 57.8146 46.7094C58.253 48.1889 59.1663 49.8145 59.8969 51.3853C59.3124 52.2073 58.9471 52.6639 58.9471 52.6639C58.9471 52.6639 58.9471 52.6639 58.9653 52.6822C58.4904 53.3032 57.979 53.979 57.4128 54.6366C55.4218 57.0111 53.0474 59.7326 52.7186 60.518C52.335 61.4496 52.4263 62.1254 53.1569 62.6734C53.6866 63.0752 54.6364 63.13 55.6045 63.0752C57.3945 62.9473 58.6548 62.509 59.2758 62.235C60.2439 61.888 61.3764 61.3583 62.4358 60.5728C64.3902 59.1299 65.5774 57.0659 65.4678 54.3443C65.413 52.8466 64.9199 51.3488 64.3171 49.9424C64.4997 49.6867 64.6641 49.431 64.8468 49.1752C67.9336 44.6637 70.3264 39.7138 70.3264 39.7138C70.3264 39.7138 70.5456 41.2298 71.2945 43.7504C71.6598 45.029 72.4087 46.4172 73.0662 47.7688C70.162 50.125 68.372 52.8648 67.7327 54.6549C66.582 57.9792 67.477 59.4769 69.1757 59.824C69.9428 59.9883 71.0387 59.623 71.8424 59.276C72.8653 58.9472 74.0708 58.381 75.2215 57.5408C77.1759 56.0978 79.0573 54.0886 78.9477 51.3671C78.8929 50.125 78.5641 48.9013 78.1075 47.714C80.5733 46.6912 83.7515 46.1249 87.8064 46.5998C96.5007 47.6227 98.2177 53.0475 97.8889 55.3307C97.5601 57.6138 95.7336 58.8559 95.1308 59.2395C94.528 59.623 94.3271 59.7509 94.3819 60.0249C94.455 60.4267 94.7472 60.4085 95.2587 60.3354C95.971 60.2075 99.825 58.4906 99.9894 54.2896C100.263 48.9195 95.1491 43.0563 86.1077 43.1111ZM19.0372 65.7237C16.1513 68.8653 12.1329 70.0526 10.3977 69.048C8.5346 67.9703 9.26522 63.3309 12.8087 60.0066C14.964 57.9792 17.7404 56.0978 19.5852 54.9471C20.0053 54.6914 20.6263 54.3261 21.3752 53.8694C21.503 53.7964 21.5761 53.7598 21.5761 53.7598C21.7222 53.6685 21.8683 53.5772 22.0145 53.4859C23.3113 58.2349 22.0693 62.4176 19.0372 65.7237ZM40.0424 51.4401C39.0378 53.8877 36.9373 60.1527 35.6587 59.8057C34.5628 59.5134 33.887 54.7645 35.4395 50.0702C36.2249 47.714 37.8871 44.9011 38.8551 43.8052C40.426 42.0517 42.1612 41.4672 42.5813 42.1796C43.111 43.1111 40.6634 49.9059 40.0424 51.4401ZM57.3762 59.7326C56.9561 59.9518 56.5543 60.0979 56.3717 59.9883C56.2438 59.9153 56.5543 59.623 56.5543 59.623C56.5543 59.623 58.7279 57.2851 59.5864 56.2257C60.0795 55.6047 60.664 54.874 61.285 54.0521C61.285 54.1252 61.285 54.2165 61.285 54.2896C61.285 57.0842 58.5818 58.9655 57.3762 59.7326ZM70.7465 56.6823C70.436 56.4631 70.4908 55.7325 71.5319 53.4493C71.9338 52.5543 72.8836 51.0566 74.5092 49.6136C74.6918 50.1981 74.8197 50.7643 74.8014 51.294C74.7832 54.8192 72.2625 56.1343 70.7465 56.6823Z" fill="#CD6799"/>
</svg>
