<svg width="81" height="100" viewBox="0 0 81 100" fill="none" xmlns="http://www.w3.org/2000/svg">
<path d="M3.10319 92.149L0.00320229 9.5992C-0.0435804 8.28809 0.423745 7.01059 1.30551 6.03915C2.18727 5.06772 3.41369 4.47923 4.72319 4.39921L74.923 0.00922337C75.6089 -0.0345443 76.2965 0.0628546 76.9432 0.295397C77.59 0.52794 78.1822 0.890683 78.6831 1.3612C79.1841 1.83171 79.5832 2.39999 79.8558 3.0309C80.1284 3.66181 80.2687 4.34193 80.268 5.02921V94.974C80.2673 95.6531 80.1292 96.325 79.8618 96.9492C79.5945 97.5734 79.2035 98.1371 78.7125 98.6062C78.2215 99.0752 77.6405 99.44 77.0047 99.6785C76.3689 99.9171 75.6914 100.024 75.013 99.994L7.90318 96.979C6.64243 96.9222 5.4491 96.3935 4.55996 95.4979C3.67082 94.6023 3.15084 93.4101 3.10319 92.149Z" fill="#FF4785"/>
<path fill-rule="evenodd" clip-rule="evenodd" d="M69.4035 0.354248L59.7436 0.954247L59.2736 12.2892C59.2678 12.431 59.3024 12.5716 59.3733 12.6945C59.4443 12.8175 59.5486 12.9178 59.6743 12.9837C59.8 13.0497 59.9418 13.0787 60.0833 13.0673C60.2248 13.0558 60.3601 13.0045 60.4736 12.9192L64.8735 9.57923L68.5935 12.5092C68.7058 12.5981 68.8413 12.653 68.9838 12.6674C69.1263 12.6817 69.2699 12.655 69.3977 12.5903C69.5255 12.5256 69.6321 12.4257 69.7049 12.3023C69.7777 12.179 69.8137 12.0374 69.8085 11.8942L69.4035 0.354248ZM61.8836 38.3042C60.1186 39.6792 46.9386 40.6142 46.9386 38.6592C47.2186 31.1942 43.8786 30.8692 42.0186 30.8692C40.2586 30.8692 37.2886 31.3992 37.2886 35.3992C37.2886 39.4742 41.6286 41.7742 46.7236 44.4741C53.9586 48.3091 62.7235 52.9541 62.7235 64.6341C62.7235 75.8341 53.6236 82.0141 42.0236 82.0141C30.0486 82.0141 19.5837 77.1691 20.7636 60.3741C21.2286 58.4041 36.4536 58.8741 36.4536 60.3741C36.2636 67.3041 37.8436 69.3441 41.8336 69.3441C44.8986 69.3441 46.2886 67.6541 46.2886 64.8141C46.2886 60.5091 41.7686 57.9691 36.5636 55.0491C29.5186 51.0941 21.2286 46.4391 21.2286 35.7542C21.2286 25.0942 28.5586 17.9842 41.6486 17.9842C54.7386 17.9842 61.8836 24.9842 61.8836 38.3042Z" fill="white"/>
</svg>
